<svg width="26" height="26" viewBox="0 0 26 26" fill="none" xmlns="http://www.w3.org/2000/svg">
<circle cx="13" cy="13" r="13" fill="#6EC760"/>
<path d="M19.4492 11.2514C19.4513 11.2899 19.4485 11.3291 19.4388 11.3681L18.5752 14.8223C18.5317 14.9963 18.3757 15.1186 18.1964 15.1196L13.0151 15.1457C13.0144 15.1457 13.0138 15.1457 13.0131 15.1457H7.83178C7.65153 15.1457 7.49447 15.023 7.45092 14.8481L6.58737 11.3808C6.57743 11.3408 6.57455 11.3005 6.57706 11.261C6.243 11.1557 6 10.8431 6 10.4747C6 10.0202 6.36976 9.65042 6.8243 9.65042C7.27884 9.65042 7.6486 10.0202 7.6486 10.4747C7.6486 10.7307 7.53131 10.9597 7.34766 11.111L8.42883 12.2004C8.70208 12.4757 9.08126 12.6335 9.46917 12.6335C9.92785 12.6335 10.3652 12.4157 10.6406 12.0508L12.4174 9.69648C12.2681 9.54732 12.1757 9.34122 12.1757 9.11397C12.1757 8.65943 12.5455 8.28967 13 8.28967C13.4545 8.28967 13.8243 8.65943 13.8243 9.11397C13.8243 9.33441 13.7368 9.5345 13.5953 9.68256C13.5958 9.68318 13.5964 9.68371 13.5968 9.68439L15.3608 12.0452C15.6361 12.4136 16.075 12.6336 16.535 12.6336C16.9264 12.6336 17.2946 12.4811 17.5714 12.2043L18.6593 11.1163C18.4718 10.9651 18.3514 10.7338 18.3514 10.4747C18.3514 10.0202 18.7212 9.65042 19.1757 9.65042C19.6302 9.65042 20 10.0202 20 10.4747C20 10.8333 19.7695 11.1382 19.4492 11.2514ZM18.491 16.3757C18.491 16.1589 18.3152 15.9831 18.0985 15.9831H7.94519C7.72841 15.9831 7.55267 16.1589 7.55267 16.3757V17.3177C7.55267 17.5345 7.72841 17.7102 7.94519 17.7102H18.0985C18.3152 17.7102 18.491 17.5345 18.491 17.3177V16.3757Z" fill="white"/>
</svg>
