<svg width="90" height="90" viewBox="0 0 90 90" fill="none" xmlns="http://www.w3.org/2000/svg">
<g filter="url(#filter0_d)">
<rect x="20" y="17" width="50" height="50" rx="25" fill="#4384FF"/>
</g>
<path d="M41.1237 53.9997C38.4558 45.2086 44.093 41.9988 44.093 41.9988C43.6986 46.6898 46.3643 50.3444 46.3643 50.3444C47.3448 50.0486 49.2161 48.666 49.2161 48.666C49.2161 50.3444 48.2287 53.9976 48.2287 53.9976C48.2287 53.9976 51.6854 51.3248 52.7735 46.8856C53.8603 42.4464 50.7036 37.9896 50.7036 37.9896C50.8938 41.1316 49.8308 44.2219 47.7483 46.5828C47.8525 46.4625 47.9399 46.3289 48.007 46.1842C48.3812 45.4359 48.9819 43.4911 48.6301 38.9876C48.135 32.6658 42.4069 30 42.4069 30C42.9006 33.8518 41.4202 34.7392 37.9523 42.0505C34.4844 49.3605 41.1237 53.9997 41.1237 53.9997Z" fill="white"/>
<defs>
<filter id="filter0_d" x="0" y="0" width="90" height="90" filterUnits="userSpaceOnUse" color-interpolation-filters="sRGB">
<feFlood flood-opacity="0" result="BackgroundImageFix"/>
<feColorMatrix in="SourceAlpha" type="matrix" values="0 0 0 0 0 0 0 0 0 0 0 0 0 0 0 0 0 0 127 0"/>
<feOffset dy="3"/>
<feGaussianBlur stdDeviation="10"/>
<feColorMatrix type="matrix" values="0 0 0 0 0.243945 0 0 0 0 0.637269 0 0 0 0 1 0 0 0 0.5 0"/>
<feBlend mode="normal" in2="BackgroundImageFix" result="effect1_dropShadow"/>
<feBlend mode="normal" in="SourceGraphic" in2="effect1_dropShadow" result="shape"/>
</filter>
</defs>
</svg>
