<svg width="20" height="20" viewBox="0 0 20 20" fill="none" xmlns="http://www.w3.org/2000/svg">
<g clip-path="url(#clip0)">
<path d="M10.0008 0C4.48753 0 0.000976562 4.48568 0.000976562 9.99965C0.000976562 15.5136 4.48724 20 10.0008 20C15.5153 20 20.0006 15.5139 20.0006 9.99965C20.0006 4.48568 15.5156 0 10.0008 0ZM14.3287 7.95082L9.09145 13.1881C8.9342 13.3451 8.72696 13.4244 8.52165 13.4244C8.31477 13.4244 8.10946 13.3452 7.95168 13.1881L5.67395 10.9103C5.35904 10.5951 5.35904 10.0853 5.67395 9.77046C5.98881 9.4556 6.49863 9.4556 6.81355 9.77046L8.52165 11.4791L13.1898 6.81076C13.504 6.49626 14.0138 6.49626 14.3287 6.81076C14.6436 7.12614 14.6436 7.63597 14.3287 7.95082Z" fill="white"/>
</g>
<defs>
<clipPath id="clip0">
<rect width="20" height="20" fill="white"/>
</clipPath>
</defs>
</svg>
