<svg width="18" height="18" viewBox="0 0 18 18" fill="none" xmlns="http://www.w3.org/2000/svg">
<g clip-path="url(#clip0)">
<path d="M6.00062 5.99993C9.43448 5.99993 12.0003 4.64246 12.0003 3.42867C12.0003 2.21499 9.43443 0.857468 6.00062 0.857468C2.5668 0.857468 0.000976562 2.21499 0.000976562 3.42867C0.000976562 4.64246 2.56675 5.99993 6.00062 5.99993Z" fill="#F4AF46"/>
<path d="M5.99964 16.2853C6.50084 16.2853 6.98323 16.2561 7.44208 16.2031C7.0553 15.706 6.73543 15.1544 6.49581 14.562C6.33116 14.5675 6.16594 14.5713 5.99958 14.5713C4.03748 14.5713 2.17933 14.1825 0.767571 13.4766C0.489597 13.3376 0.233797 13.1883 0 13.0302V13.7141C0 14.9278 2.56577 16.2853 5.99964 16.2853Z" fill="#F4AF46"/>
<path d="M5.9997 12.8568C6.0173 12.8568 6.03461 12.8566 6.05216 12.8565C6.01701 12.5756 5.99867 12.2894 5.99867 11.9991C5.99867 11.7089 6.01695 11.4229 6.05216 11.1422C6.03461 11.1422 6.01724 11.1428 5.9997 11.1428C4.03759 11.1428 2.1795 10.7541 0.767685 10.0482C0.489655 9.90918 0.233797 9.75985 0 9.60184V10.2856C5.71492e-05 11.4993 2.56583 12.8568 5.9997 12.8568Z" fill="#F4AF46"/>
<path d="M5.9997 9.42831C6.16977 9.42831 6.33756 9.42488 6.50324 9.41836C6.76932 8.76555 7.13296 8.16257 7.57633 7.62783C7.06301 7.6844 6.53547 7.71441 5.9997 7.71441C4.03759 7.71441 2.1795 7.32562 0.767685 6.61972C0.489654 6.48067 0.233797 6.3314 0 6.17332V6.85717C5.71492e-05 8.0709 2.56583 9.42831 5.9997 9.42831Z" fill="#F4AF46"/>
<path d="M8.57159 9.15782C8.20069 9.71543 7.93569 10.3492 7.80533 11.0301C7.74515 11.3441 7.71338 11.6679 7.71338 11.9991C7.71338 12.2481 7.73155 12.4929 7.7659 12.7326C7.85031 13.3213 8.03473 13.8779 8.30139 14.385C8.58119 14.9171 8.95135 15.3946 9.39157 15.7966C10.3064 16.6322 11.5231 17.1425 12.8568 17.1425C15.6929 17.1425 18.0002 14.8352 18.0002 11.9991C18.0002 9.16297 15.6929 6.85568 12.8568 6.85568C12.5637 6.85568 12.2763 6.88071 11.9964 6.92803C10.5706 7.16915 9.34259 7.9989 8.57159 9.15782Z" fill="#F4AF46"/>
</g>
<defs>
<clipPath id="clip0">
<rect width="18" height="18" fill="white"/>
</clipPath>
</defs>
</svg>
