<svg width="16" height="16" viewBox="0 0 16 16" fill="none" xmlns="http://www.w3.org/2000/svg">
<g clip-path="url(#clip0)">
<path d="M15.4142 9.41432C14.6332 10.1954 13.3668 10.1954 12.5858 9.41432C11.8047 8.63328 11.8047 7.36695 12.5858 6.5859C13.3668 5.80486 14.6332 5.80486 15.4142 6.5859C16.1953 7.36692 16.1953 8.63325 15.4142 9.41432Z" fill="#75808C"/>
<path d="M9.41422 9.41432C8.63317 10.1954 7.36684 10.1954 6.58579 9.41432C5.80475 8.63328 5.80475 7.36695 6.58579 6.5859C7.36684 5.80486 8.63317 5.80486 9.41422 6.5859C10.1953 7.36692 10.1953 8.63324 9.41422 9.41432Z" fill="#75808C"/>
<path d="M3.41422 9.41432C2.63317 10.1954 1.36684 10.1954 0.585792 9.41432C-0.195254 8.63328 -0.195254 7.36695 0.585792 6.5859C1.36684 5.80486 2.63317 5.80486 3.41422 6.5859C4.19526 7.36692 4.19526 8.63324 3.41422 9.41432Z" fill="#75808C"/>
</g>
<defs>
<clipPath id="clip0">
<rect width="16" height="16" fill="white" transform="translate(16) rotate(90)"/>
</clipPath>
</defs>
</svg>
